<svg width="80" height="79" viewBox="0 0 80 79" fill="none" xmlns="http://www.w3.org/2000/svg">
<path fill-rule="evenodd" clip-rule="evenodd" d="M78.5667 32.9501C78.9244 34.5598 79.1005 36.189 79.1005 37.8375C79.296 41.7877 78.9868 45.699 77.8416 49.487C73.2619 64.6346 63.3387 74.4344 47.9152 77.9922C28.6774 82.429 10.9162 71.7279 3.51785 55.5169C0.255394 48.3681 -0.756757 40.899 0.560426 33.1997C2.5154 21.7735 8.47322 12.8596 18.1025 6.41789C22.599 3.40917 27.5751 1.57621 32.8716 0.576538C33.0118 0.550613 33.1553 0.542642 33.2989 0.534665C33.3627 0.531123 33.4265 0.52758 33.49 0.522465C35.9704 0.042733 38.4786 -0.0681876 40.9924 0.0358004C49.9894 0.408771 57.9466 3.50207 64.8888 9.22557C65.0107 9.32617 65.1238 9.43824 65.2371 9.55048L65.2371 9.55054L65.2373 9.55073L65.2375 9.55084L65.2376 9.55095L65.2377 9.55106L65.2378 9.55117L65.2379 9.55127L65.238 9.55138C65.2868 9.59973 65.3356 9.6481 65.3852 9.6956C67.8934 11.7573 70.0175 14.1754 71.8879 16.8181C75.2211 21.5322 77.4381 26.7261 78.514 32.4024C78.5378 32.5261 78.5459 32.6517 78.5541 32.7774V32.7776C78.5578 32.8351 78.5615 32.8927 78.5667 32.9501ZM48.2798 74.7242C62.0756 71.3661 70.7593 62.1486 74.9507 48.6551C75.6384 46.4436 75.9351 44.1531 76.1861 41.857C76.1778 41.8487 76.1708 41.839 76.1639 41.8293C76.1708 41.8238 76.1833 41.8168 76.1833 41.8168H76.1875C76.254 39.5457 76.218 37.2816 75.9407 35.0188C75.1726 28.7282 72.6644 23.135 69.0068 18.0549C67.232 15.5924 65.1204 13.3851 62.7453 11.4537C55.3774 5.4612 46.9807 2.605 37.4706 3.10969C36.205 3.1779 34.9529 3.35969 33.7011 3.54145L33.7011 3.54146C33.299 3.59984 32.8969 3.65821 32.4945 3.71282C32.4515 3.74332 32.4113 3.78353 32.3738 3.83067C32.3322 3.80987 32.292 3.78214 32.2532 3.74609C32.2263 3.75711 32.1999 3.76938 32.1735 3.78162C32.1168 3.80791 32.0605 3.83406 32.0009 3.84731C25.2721 5.33087 19.3989 8.46993 14.4602 13.2381C7.16991 20.276 3.19479 28.8779 3.00761 39.0618C2.85787 47.2533 5.40765 54.66 10.4532 61.0712C20.1892 73.4444 32.9063 78.465 48.2798 74.7242ZM62.2627 31.0654C64.9518 33.7326 67.6408 36.3998 70.3295 39.0674C70.3625 39.1004 70.4026 39.1314 70.4429 39.1627C70.6078 39.2905 70.7774 39.422 70.4889 39.7038C68.6297 41.5146 66.7776 43.3333 64.9255 45.1522C64.3412 45.726 63.7569 46.2998 63.1723 46.8734C62.4908 47.5579 61.8101 48.243 61.1294 48.9281L61.1291 48.9284L61.1289 48.9286L61.1287 48.9288L61.1284 48.9291L61.1282 48.9293L61.128 48.9295L61.1278 48.9297L61.1275 48.93L61.1273 48.9302L61.1271 48.9304L61.1268 48.9307L61.1266 48.9309L61.1264 48.9311L61.1262 48.9313C59.5811 50.4864 58.0361 52.0413 56.4824 53.5883C54.7916 55.2718 53.0991 56.9537 51.4066 58.6356L51.4008 58.6414L51.4006 58.6416C47.659 62.3598 43.9175 66.078 40.1937 69.8132C39.671 70.3373 39.4464 70.2444 38.9805 69.7799C31.6339 62.4505 24.2754 55.1328 16.9177 47.8158L16.9175 47.8156L16.9173 47.8154L16.9171 47.8152L16.9169 47.815L16.9167 47.8148L16.9165 47.8146L16.9163 47.8145L16.9162 47.8143L16.916 47.8141L16.9158 47.8139L16.9156 47.8137L16.9154 47.8135L16.9134 47.8115C14.8121 45.7218 12.7108 43.6321 10.6098 41.5423C10.4805 41.4129 10.3585 41.2762 10.2366 41.1395L10.2365 41.1394L10.2364 41.1393C10.1754 41.0709 10.1144 41.0025 10.0525 40.935C9.84801 40.7403 9.64357 40.5459 9.43913 40.3515C9.23455 40.1569 9.02997 39.9624 8.82539 39.7676C8.36092 39.4459 8.62158 39.2365 8.93909 39.0355C9.70134 38.2784 10.4637 37.5214 11.226 36.7644C13.1331 34.8708 15.04 32.9774 16.9448 31.0825L20.3021 27.7425C26.5665 21.5108 32.8304 15.2795 39.0804 9.03423C39.5102 8.60442 39.7015 8.67097 40.0898 9.05642C47.4753 16.3982 54.869 23.7318 62.2627 31.0654ZM41.0894 57.7741V64.1437C48.8802 56.4847 56.5088 48.9033 64.1637 41.1749L64.1096 41.1701L64.0793 41.1673C64.0485 41.1644 64.0208 41.1616 63.9956 41.1591L63.9345 41.1527L63.9339 41.1527C63.8517 41.1441 63.8011 41.1388 63.7505 41.1388C61.31 41.1374 58.8695 41.1374 56.4291 41.1374H56.4089H56.3674C51.4425 41.136 46.5162 41.1333 41.59 41.118C41.0866 41.1166 41.0714 41.326 41.0714 41.674V41.7309C41.0728 42.2591 41.0742 42.786 41.0742 43.3142V43.3281C41.0769 44.6411 41.0783 45.9542 41.0797 47.2672V47.3171C41.0816 48.1045 41.0822 48.8918 41.0828 49.6796V49.6803V49.6809L41.0831 50.0259L41.0839 50.8624V50.9137C41.0853 52.0569 41.086 53.2004 41.0867 54.3439C41.0873 55.4874 41.088 56.631 41.0894 57.7741ZM41.6437 15.3467C41.4963 15.192 41.3429 15.0308 41.095 14.956C41.0917 15.0106 41.0881 15.0595 41.0847 15.1047L41.0847 15.1049C41.0782 15.1929 41.0728 15.2668 41.0728 15.3401C41.0737 17.0317 41.0759 18.7226 41.078 20.4138V20.4149V20.4159V20.417V20.4181V20.4191V20.4202V20.4213V20.4224V20.4234V20.4245V20.4256V20.4266V20.4277V20.4288C41.0791 21.2762 41.0802 22.1237 41.0811 22.9714V23.0088L41.0858 23.0765C41.1177 23.5308 41.1494 23.9836 41.1282 24.4314C41.1033 24.9347 41.0922 25.4325 41.0825 25.9358V25.9746C41.0853 29.6377 41.0839 33.3023 41.0728 36.9654C41.07 37.6199 41.278 37.7003 41.8492 37.6989C46.8546 37.6883 51.8605 37.6897 56.8663 37.6911C59.0918 37.6918 61.3172 37.6924 63.5425 37.692C63.5757 37.692 63.6103 37.696 63.6456 37.7001C63.7669 37.7142 63.8974 37.7294 64.0112 37.5866L63.8573 37.393C63.7576 37.2675 63.657 37.141 63.5564 37.014C63.4274 36.9668 63.3401 36.8795 63.293 36.7505C63.1529 36.6964 63.0572 36.5994 63.0032 36.4593C62.8728 36.4136 62.7855 36.3249 62.7397 36.1945C62.6011 36.1405 62.5054 36.042 62.4513 35.9034C61.7466 35.2066 61.0415 34.51 60.3363 33.8134L60.3338 33.8109C58.5659 32.0645 56.7976 30.3177 55.0349 28.566C54.2652 27.8 53.5056 27.0246 52.7459 26.2491L52.7454 26.2486C52.3776 25.8732 52.0098 25.4977 51.6407 25.1233C51.4993 25.065 51.3995 24.9638 51.3371 24.8238C51.2137 24.7808 51.1305 24.6962 51.0848 24.5742C50.7035 24.29 50.3721 23.9531 50.0768 23.5815C49.995 23.5024 49.9132 23.4234 49.8314 23.343C49.7765 23.2939 49.7209 23.2455 49.6652 23.1971L49.6651 23.1971C49.5479 23.0951 49.4307 22.9931 49.3197 22.8841C48.268 21.8526 47.2168 20.8204 46.1655 19.7881C44.6944 18.3437 43.2233 16.8992 41.7508 15.4565C41.7146 15.4212 41.6794 15.3841 41.6437 15.3467ZM37.8949 15.774C37.9032 15.555 37.8727 15.372 37.7868 15.2125C30.154 22.6761 22.714 30.1091 15.1659 37.6892H15.6914C17.0812 37.6892 18.4709 37.6889 19.8606 37.6887H19.8642H19.8643H19.8645H19.8646H19.8647H19.8648H19.865H19.8651H19.8652H19.8653H19.8655H19.8656H19.8657H19.8659C25.7018 37.6876 31.537 37.6865 37.3722 37.7044C37.7313 37.7058 37.8561 37.6004 37.8991 37.423C37.8866 37.3259 37.881 37.2247 37.881 37.1221L37.8809 34.6084C37.8806 29.1627 37.8803 23.7169 37.8935 18.2711C37.8935 18.2176 37.8868 18.159 37.8798 18.0986C37.863 17.9525 37.8449 17.796 37.9185 17.6763V16.1359C37.8849 16.0285 37.8904 15.8898 37.8945 15.7842V15.7841L37.8949 15.774ZM37.9013 63.778L37.9014 63.7779L37.9014 63.7777C37.914 63.7164 37.9213 63.6807 37.9213 63.6446C37.9216 61.8773 37.9214 60.11 37.9211 58.3428V58.3427V58.3426V58.3426V58.3425V58.3424V58.3424V58.3423V58.3422V58.3421V58.3421V58.342V58.3419V58.3419V58.3418C37.9204 52.7878 37.9197 47.2343 37.9365 41.6809C37.9379 41.127 37.6942 41.1272 37.3061 41.1277L37.2724 41.1277C32.5487 41.1331 27.825 41.1326 23.102 41.1322L19.0509 41.1319H15.0356C22.6558 48.8603 30.1818 56.4223 37.8686 63.9496C37.8815 63.8746 37.8927 63.8202 37.9013 63.778ZM28.5887 63.0526L28.1921 63.0541C26.8239 63.0595 25.4547 63.0649 24.0867 63.0345C19.514 62.9306 16.2307 59.6126 16.1739 55.0469C16.1626 54.1043 16.1633 53.1618 16.164 52.2189V52.2188V52.2188V52.2187V52.2187V52.2186V52.2185V52.2185V52.2184V52.2184V52.2183V52.2183V52.2182V52.2177C16.1644 51.6602 16.1649 51.1027 16.1628 50.5449C16.1628 50.5094 16.1639 50.4736 16.165 50.4377V50.4376C16.1709 50.2462 16.1769 50.0522 16.0158 49.8946C15.3707 49.2657 14.7278 48.636 14.0446 47.9669L14.0399 47.9622L14.0355 47.9579L14.0344 47.9569L13.265 47.2034C13.3205 48.5317 13.3112 49.8287 13.302 51.1086C13.291 52.6436 13.2801 54.154 13.3815 55.6639C13.7683 61.4054 18.0873 65.6537 23.833 65.8325C25.65 65.8886 27.469 65.8779 29.2882 65.8673H29.2883H29.2884H29.2884H29.2885H29.2886H29.2886H29.2887H29.2888H29.2888H29.2889H29.289H29.2891H29.2891C30.0794 65.8626 30.8696 65.858 31.6598 65.8589C31.6694 65.8589 31.6793 65.8592 31.6894 65.8597L31.7089 65.8607C31.8014 65.8659 31.9044 65.8716 31.9607 65.7285C31.7328 65.5133 31.504 65.298 31.2749 65.0824C30.6702 64.5134 30.0628 63.9419 29.4636 63.3618C29.2098 63.115 28.9298 63.0512 28.5887 63.0526ZM55.0127 15.964C53.5583 15.9349 52.1038 15.9418 50.648 15.9585C50.2307 15.964 49.8993 15.8836 49.6054 15.5605C49.0972 15.0011 48.5755 14.4532 48.0362 13.8867L48.0358 13.8863L48.0345 13.8849C47.8004 13.639 47.5629 13.3895 47.3218 13.1341C48.525 13.1846 49.7299 13.1633 50.9344 13.1421C52.8404 13.1085 54.7456 13.0748 56.6419 13.3255C61.2784 13.9369 65.0455 17.8039 65.7817 22.6539C66.0954 24.7161 66.0459 26.7901 65.9961 28.8768C65.9734 29.8247 65.9507 30.7753 65.962 31.7286C64.9789 30.844 64.0223 29.9677 63.2014 28.9556C63.085 28.8103 63.0988 28.6344 63.1124 28.4603C63.1171 28.4001 63.1217 28.3401 63.121 28.2817C63.1124 27.7098 63.1242 27.1368 63.136 26.5639V26.5638V26.5638V26.5638V26.5637V26.5637V26.5636V26.5636V26.5636V26.5635V26.5635V26.5634V26.5634C63.1585 25.4726 63.181 24.3816 63.0628 23.2972C62.6108 19.1613 59.1695 16.0444 55.0127 15.964ZM15.8009 29.1954C16.0796 28.9084 16.167 28.5965 16.16 28.2027C16.1364 26.8869 16.1351 25.5711 16.1448 24.2553C16.1822 19.5356 19.6249 16.05 24.3487 15.9626C25.2636 15.9467 26.1784 15.9528 27.0932 15.959C27.6092 15.9624 28.1253 15.9659 28.6414 15.9654C28.6892 15.9654 28.7414 15.9681 28.7948 15.9709C28.9703 15.98 29.1584 15.9898 29.2445 15.9058C29.9639 15.1919 30.6629 14.4586 31.353 13.7348L31.353 13.7348L31.3535 13.7342C31.5278 13.5515 31.7014 13.3693 31.8747 13.1882C31.0294 13.1882 30.1814 13.177 29.332 13.1657H29.332H29.332H29.332H29.3319H29.3319H29.3319H29.3319H29.3319H29.3319H29.3318H29.3318C27.4463 13.1407 25.5534 13.1157 23.6666 13.2132C18.2481 13.4946 13.9693 17.6708 13.4064 23.0726C13.1917 25.1382 13.2601 27.209 13.3296 29.3115C13.3561 30.1148 13.3828 30.9228 13.3939 31.7369C13.626 31.4912 13.8573 31.245 14.0886 30.9987L14.0893 30.998C14.6567 30.394 15.2239 29.7902 15.8009 29.1954ZM65.9543 48.6711V48.6714V48.6718V48.6721V48.6725V48.6728V48.6731V48.6734V48.6738V48.6741V48.6744C65.9581 49.7879 65.9616 50.8444 65.9453 51.9009C65.9397 52.2817 65.9477 52.6631 65.9557 53.0447V53.045V53.0452V53.0454V53.0457V53.0459V53.0461V53.0463V53.0466V53.0468V53.047V53.0472C65.9733 53.8916 65.991 54.7367 65.8622 55.5765V55.693C65.8622 55.7598 65.8383 55.8171 65.8138 55.876L65.8081 55.8899C65.754 60.2754 62.1699 64.5153 57.6374 65.5483C57.2339 65.6398 56.8221 65.7258 56.4103 65.759C54.5269 65.9155 52.642 65.8993 50.7339 65.8828H50.7338H50.7336H50.7335H50.7333H50.7332H50.733H50.7329H50.7327H50.7326H50.7324C49.5633 65.8728 48.3856 65.8626 47.1942 65.8921C47.4568 65.624 47.7134 65.3627 47.9653 65.1061L47.9662 65.1052C48.6014 64.4584 49.2074 63.8411 49.8078 63.2189C49.9859 63.0337 50.1942 63.0382 50.4062 63.0428L50.4562 63.0438C50.4767 63.0442 50.4972 63.0444 50.5177 63.0443C51.039 63.0434 51.5605 63.0482 52.0819 63.0531C53.201 63.0635 54.32 63.074 55.437 63.0276C59.3428 62.8668 62.4541 60.1049 62.9782 56.2739C63.1567 54.9701 63.1204 53.6512 63.0842 52.3326V52.3326V52.3326V52.3325V52.3325V52.3325V52.3324V52.3324V52.3323V52.3323V52.3323V52.3321V52.3319V52.3317V52.3315V52.3314V52.3312V52.331V52.3308V52.3306V52.3304C63.0689 51.775 63.0536 51.2197 63.0545 50.6655C63.0559 50.2135 63.1515 49.8502 63.5522 49.609C64.0088 49.0484 64.523 48.5461 65.0721 48.0098L65.0722 48.0097L65.0724 48.0095C65.3569 47.7316 65.6508 47.4445 65.9509 47.1355C65.9509 47.6622 65.9526 48.1724 65.9543 48.6711Z" fill="#18181B"/>
</svg>
